<svg width="81" height="81" viewBox="0 0 81 81" fill="none" xmlns="http://www.w3.org/2000/svg">
<circle cx="40.5" cy="40.5" r="40" fill="#FCFCFC" stroke="#262626"/>
<path d="M41.6152 19V54H34.8652V50.5H34.6152C34.6152 50.5 32.3652 54.75 26.6152 54.75C19.1152 54.75 15.3652 48.25 15.3652 41C15.3652 33.75 19.1152 27.25 26.6152 27.25C32.1152 27.25 34.3652 30.75 34.3652 30.75H34.6152V19H41.6152ZM34.8652 41C34.8652 36.3 32.8652 32.5 28.6152 32.5C24.3652 32.5 22.3652 36.3 22.3652 41C22.3652 45.7 24.3652 49.5 28.6152 49.5C32.8652 49.5 34.8652 45.7 34.8652 41ZM57.6309 28H64.8809V33.5H57.6309V54H50.6309V33.5H43.6309V28H50.6309V27.25C50.6309 21.25 53.6309 18.25 59.8809 18.25C63.1309 18.25 64.8809 19 64.8809 19V24.5C64.8809 24.5 62.8809 24 60.8809 24C58.6309 24 57.6309 25 57.6309 27.25V28Z" fill="#CAE78E"/>
</svg>
