<svg width="82" height="81" viewBox="0 0 82 81" fill="none" xmlns="http://www.w3.org/2000/svg">
<circle cx="41" cy="40.5" r="40" fill="#FCFCFC" stroke="#262626"/>
<path d="M60.1472 46.8528H55.1302L58.6781 50.4006C60.9643 52.6869 60.9643 56.3918 58.6781 58.6781C57.5363 59.8199 56.0378 60.3921 54.5393 60.3921C53.0409 60.3921 51.5424 59.8199 50.4006 58.6781L46.8528 55.1302V60.1472C46.8528 63.381 44.2311 66 41 66C37.7689 66 35.1472 63.3784 35.1472 60.1472V55.1302L31.5994 58.6781C29.3131 60.9643 25.6082 60.9643 23.3219 58.6781C21.0357 56.3918 21.0357 52.6869 23.3219 50.4006L26.8698 46.8528H21.8528C18.619 46.8528 16 44.2311 16 41C16 37.7689 18.6216 35.1472 21.8528 35.1472H26.8698L23.3219 31.5994C21.0357 29.3131 21.0357 25.6082 23.3219 23.3219C25.6082 21.0357 29.3131 21.0357 31.5994 23.3219L35.1472 26.8698V21.8528C35.1472 18.619 37.7689 16 41 16C42.6156 16 44.0794 16.6547 45.1387 17.714C46.198 18.7733 46.8528 20.2372 46.8528 21.8528V26.8698L50.4006 23.3219C52.6869 21.0357 56.3918 21.0357 58.6781 23.3219C59.8199 24.4638 60.3921 25.9622 60.3921 27.4607C60.3921 28.9591 59.8199 30.4576 58.6781 31.5994L55.1302 35.1472H60.1472C63.381 35.1472 66 37.7689 66 41C66 42.6156 65.3453 44.0794 64.286 45.1387C63.2267 46.198 61.7628 46.8528 60.1472 46.8528Z" fill="#CAE78E"/>
</svg>
