<svg width="82" height="81" viewBox="0 0 82 81" fill="none" xmlns="http://www.w3.org/2000/svg">
<circle cx="41" cy="40.5" r="40" fill="#FCFCFC" stroke="#262626"/>
<path d="M42.1152 28V51C42.1152 58.5 38.1152 63.75 29.1152 63.75C17.1152 63.75 16.8652 54.75 16.8652 54.75H23.8652C23.8652 54.75 24.1152 58.5 29.1152 58.5C33.5652 58.5 35.1152 56 35.1152 51.5V50.25H34.8652C34.8652 50.25 32.6152 53.75 27.1152 53.75C19.6152 53.75 15.8652 47.25 15.8652 40.5C15.8652 33.75 19.6152 27.25 27.1152 27.25C32.8652 27.25 35.1152 31.5 35.1152 31.5H35.3652V28H42.1152ZM35.3652 40.5C35.3652 36.3 33.3652 32.5 29.1152 32.5C24.8652 32.5 22.8652 36.3 22.8652 40.5C22.8652 44.7 24.8652 48.5 29.1152 48.5C33.3652 48.5 35.3652 44.7 35.3652 40.5ZM58.1309 28H65.3809V33.5H58.1309V54H51.1309V33.5H44.1309V28H51.1309V27.25C51.1309 21.25 54.1309 18.25 60.3809 18.25C63.6309 18.25 65.3809 19 65.3809 19V24.5C65.3809 24.5 63.3809 24 61.3809 24C59.1309 24 58.1309 25 58.1309 27.25V28Z" fill="#CAE78E"/>
</svg>
