<svg width="81" height="81" viewBox="0 0 81 81" fill="none" xmlns="http://www.w3.org/2000/svg">
<circle cx="40.5" cy="40.5" r="40" fill="#FCFCFC" stroke="#262626"/>
<path d="M40.4272 28L31.5771 54H22.6771L13.8271 28H21.3271L27.3271 47.75L33.3271 28H40.4272ZM66.4072 28V51C66.4072 58.5 62.4072 63.75 53.4072 63.75C41.4072 63.75 41.1572 54.75 41.1572 54.75H48.1572C48.1572 54.75 48.4072 58.5 53.4072 58.5C57.8572 58.5 59.4072 56 59.4072 51.5V50.25H59.1572C59.1572 50.25 56.9072 53.75 51.4072 53.75C43.9072 53.75 40.1572 47.25 40.1572 40.5C40.1572 33.75 43.9072 27.25 51.4072 27.25C57.1572 27.25 59.4072 31.5 59.4072 31.5H59.6572V28H66.4072ZM59.6572 40.5C59.6572 36.3 57.6572 32.5 53.4072 32.5C49.1572 32.5 47.1572 36.3 47.1572 40.5C47.1572 44.7 49.1572 48.5 53.4072 48.5C57.6572 48.5 59.6572 44.7 59.6572 40.5Z" fill="#CAE78E"/>
</svg>
